<?xml version="1.0" encoding="UTF-8" standalone="no"?>
<!-- Created with Inkscape (http://www.inkscape.org/) -->

<svg
   xmlns:dc="http://purl.org/dc/elements/1.1/"
   xmlns:cc="http://creativecommons.org/ns#"
   xmlns:rdf="http://www.w3.org/1999/02/22-rdf-syntax-ns#"
   xmlns:svg="http://www.w3.org/2000/svg"
   xmlns="http://www.w3.org/2000/svg"
   xmlns:xlink="http://www.w3.org/1999/xlink"
   xmlns:sodipodi="http://sodipodi.sourceforge.net/DTD/sodipodi-0.dtd"
   xmlns:inkscape="http://www.inkscape.org/namespaces/inkscape"
   width="48"
   height="48"
   id="svg2"
   version="1.1"
   inkscape:version="0.48.0 r9654"
   sodipodi:docname="exchange_menu_icon.svg"
   inkscape:export-filename="/home/malc/wholemeal/projects/ChristchurchMetro/res/drawable/ic_menu_exchange.png"
   inkscape:export-xdpi="90"
   inkscape:export-ydpi="90">
  <defs
     id="defs4">
    <linearGradient
       id="linearGradient3755">
      <stop
         style="stop-color:#a3a3a3;stop-opacity:1;"
         offset="0"
         id="stop3757" />
      <stop
         style="stop-color:#787878;stop-opacity:1;"
         offset="1"
         id="stop3759" />
    </linearGradient>
    <filter
       id="filter4082"
       inkscape:label="filter1"
       color-interpolation-filters="sRGB" />
    <filter
       id="filter4084"
       inkscape:label="Inner Shadow"
       inkscape:menu="Shadows and Glows"
       inkscape:menu-tooltip="Adds a colorizable drop shadow inside"
       color-interpolation-filters="sRGB">
      <feGaussianBlur
         id="feGaussianBlur4086"
         stdDeviation="4"
         result="result8" />
      <feOffset
         id="feOffset4088"
         dx="4"
         dy="4"
         result="result11" />
      <feComposite
         id="feComposite4090"
         in2="result11"
         result="result6"
         in="SourceGraphic"
         operator="in" />
      <feFlood
         id="feFlood4092"
         result="result10"
         in="result6"
         flood-opacity="1"
         flood-color="rgb(0,0,0)" />
      <feBlend
         id="feBlend4094"
         in2="result10"
         mode="normal"
         in="result6"
         result="result12" />
      <feComposite
         id="feComposite4096"
         in2="SourceGraphic"
         result="result2"
         operator="in" />
    </filter>
    <linearGradient
       inkscape:collect="always"
       xlink:href="#linearGradient3755"
       id="linearGradient4103"
       gradientUnits="userSpaceOnUse"
       gradientTransform="translate(100,-248.57143)"
       x1="260.85269"
       y1="995.51471"
       x2="260.85269"
       y2="580.94196" />
  </defs>
  <sodipodi:namedview
     id="base"
     pagecolor="#ffffff"
     bordercolor="#666666"
     borderopacity="1.0"
     inkscape:pageopacity="0.0"
     inkscape:pageshadow="2"
     inkscape:zoom="10.625"
     inkscape:cx="24"
     inkscape:cy="24"
     inkscape:document-units="px"
     inkscape:current-layer="layer1"
     showgrid="false"
     showguides="true"
     inkscape:guide-bbox="true"
     inkscape:window-width="1366"
     inkscape:window-height="714"
     inkscape:window-x="0"
     inkscape:window-y="24"
     inkscape:window-maximized="1">
    <sodipodi:guide
       orientation="0,1"
       position="10.164706,5.9294118"
       id="guide4126" />
  </sodipodi:namedview>
  <metadata
     id="metadata7">
    <rdf:RDF>
      <cc:Work
         rdf:about="">
        <dc:format>image/svg+xml</dc:format>
        <dc:type
           rdf:resource="http://purl.org/dc/dcmitype/StillImage" />
        <dc:title></dc:title>
      </cc:Work>
    </rdf:RDF>
  </metadata>
  <g
     inkscape:label="Layer 1"
     inkscape:groupmode="layer"
     id="layer1"
     transform="translate(0,-1004.3622)">
    <path
       style="fill:url(#linearGradient4103);fill-opacity:1;stroke:none;filter:url(#filter4084)"
       d="m 230.5625,330.14732 c -33.24,0 -43.15303,26.88214 -46,60 l -14,162.84375 31,109.4375 -30.125,0 0,42 37.5625,0 0,41.59375 72.84375,0 0,-41.59375 179.15625,0 0,41.59375 72.84375,0 0,-41.59375 37.59375,0 0,-42 -33.1875,0 34.03125,-109.4375 -16,-162.84375 c -3.25004,-33.08073 -26.76,-60 -60,-60 l -265.71875,0 z m 45.375,12.28125 191,0 0,39 -191,0 0,-39 z m 88.5,44 0,151 -180,0 14,-141 166,-10 z m 14,0 166,10 14,141 -180,0 0,-151 z m -142,197 c 5.89356,0 10.93505,3.6566 13,8.8125 2.05952,-5.16729 7.09824,-8.8125 13,-8.8125 7.73199,0 14,6.26802 14,14 0,7.73199 -6.26801,14 -14,14 -5.89356,0 -10.93505,-3.6566 -13,-8.8125 -2.06495,5.1559 -7.10644,8.8125 -13,8.8125 -7.73199,0 -14,-6.26801 -14,-14 0,-7.73198 6.26801,-14 14,-14 z m 244,0 c 5.89356,0 10.93505,3.6566 13,8.8125 2.05952,-5.16729 7.09824,-8.8125 13,-8.8125 7.73199,0 14,6.26802 14,14 0,7.73199 -6.26801,14 -14,14 -5.89356,0 -10.93505,-3.6566 -13,-8.8125 -2.06495,5.1559 -7.10644,8.8125 -13,8.8125 -7.73199,0 -14,-6.26801 -14,-14 0,-7.73198 6.26801,-14 14,-14 z m -256.5,45 295,0 0,10 -295,0 0,-10 z"
       id="rect3038"
       inkscape:connector-curvature="0"
       transform="matrix(0.08518123,0,0,0.08518123,-7.6381714,982.52747)" />
  </g>
</svg>
