<?xml version="1.0" encoding="UTF-8" standalone="no"?>
<!-- Created with Inkscape (http://www.inkscape.org/) -->

<svg
   xmlns:dc="http://purl.org/dc/elements/1.1/"
   xmlns:cc="http://creativecommons.org/ns#"
   xmlns:rdf="http://www.w3.org/1999/02/22-rdf-syntax-ns#"
   xmlns:svg="http://www.w3.org/2000/svg"
   xmlns="http://www.w3.org/2000/svg"
   xmlns:xlink="http://www.w3.org/1999/xlink"
   xmlns:sodipodi="http://sodipodi.sourceforge.net/DTD/sodipodi-0.dtd"
   xmlns:inkscape="http://www.inkscape.org/namespaces/inkscape"
   width="72"
   height="72"
   id="svg2"
   version="1.1"
   inkscape:version="0.48.0 r9654"
   sodipodi:docname="launcher.svg"
   inkscape:export-filename="/home/malc/wholemeal/projects/ChristchurchMetro/res/drawable-ldpi/icon.png"
   inkscape:export-xdpi="45"
   inkscape:export-ydpi="45">
  <defs
     id="defs4">
    <linearGradient
       id="linearGradient3804">
      <stop
         id="stop3806"
         offset="0"
         style="stop-color:#969abf;stop-opacity:1;" />
      <stop
         id="stop3808"
         offset="1"
         style="stop-color:#646bcf;stop-opacity:1;" />
    </linearGradient>
    <linearGradient
       id="linearGradient3770">
      <stop
         style="stop-color:#191e53;stop-opacity:1;"
         offset="0"
         id="stop3772" />
      <stop
         style="stop-color:#242974;stop-opacity:1;"
         offset="1"
         id="stop3774" />
    </linearGradient>
    <linearGradient
       inkscape:collect="always"
       xlink:href="#linearGradient3770"
       id="linearGradient3800"
       x1="36.3843"
       y1="1036.7358"
       x2="36.3843"
       y2="998.39337"
       gradientUnits="userSpaceOnUse" />
    <linearGradient
       inkscape:collect="always"
       xlink:href="#linearGradient3804"
       id="linearGradient3810"
       gradientUnits="userSpaceOnUse"
       x1="36.3843"
       y1="1036.7358"
       x2="36.3843"
       y2="998.39337"
       gradientTransform="matrix(0.96862745,0,0,0.96862745,1.1294118,31.885874)" />
    <filter
       inkscape:collect="always"
       id="filter3854">
      <feGaussianBlur
         inkscape:collect="always"
         stdDeviation="0.56781526"
         id="feGaussianBlur3856" />
    </filter>
    <filter
       inkscape:collect="always"
       id="filter3959">
      <feGaussianBlur
         inkscape:collect="always"
         stdDeviation="1.0502473"
         id="feGaussianBlur3961" />
    </filter>
    <mask
       maskUnits="userSpaceOnUse"
       id="mask3969">
      <g
         transform="translate(-0.48528664,-0.24264332)"
         id="g3971">
        <g
           id="g3973">
          <path
             sodipodi:nodetypes="cccsssccscccsccsssccc"
             inkscape:connector-curvature="0"
             d="m 26.4375,1023.8438 0,26.5624 10,0 0,-26.5624 c 0,-2.1321 1.618069,-3.75 3.75,-3.75 2.131933,0 3.75,1.6179 3.75,3.75 l 0,26.5624 10,0 0,-26.5624 c 0,-7.5364 -6.213701,-13.75 -13.75,-13.75 -5.877844,0 -8.777386,3.158 -8.777386,3.158 0,0 -2.673236,-3.158 -8.722614,-3.158 -7.536299,0 -13.75,6.2136 -13.75,13.75 l 0,26.5624 10,0 0,-26.5624 c 0,-2.1321 1.618069,-3.75 3.75,-3.75 2.131933,0 3.75,1.6179 3.75,3.75 l 0,26.5624 10,0 0,-26.5624"
             style="font-size:medium;font-style:normal;font-variant:normal;font-weight:normal;font-stretch:normal;text-indent:0;text-align:start;text-decoration:none;line-height:normal;letter-spacing:normal;word-spacing:normal;text-transform:none;direction:ltr;block-progression:tb;writing-mode:lr-tb;text-anchor:start;baseline-shift:baseline;color:#000000;fill:#ffffff;fill-opacity:1;stroke:none;stroke-width:10;marker:none;visibility:visible;display:inline;overflow:visible;enable-background:accumulate;font-family:Sans;-inkscape-font-specification:Sans"
             id="path3975" />
        </g>
      </g>
    </mask>
    <linearGradient
       inkscape:collect="always"
       xlink:href="#linearGradient3770"
       id="linearGradient4026"
       gradientUnits="userSpaceOnUse"
       x1="36.3843"
       y1="1036.7358"
       x2="36.3843"
       y2="998.39337"
       gradientTransform="translate(0,-980.3622)" />
    <filter
       inkscape:collect="always"
       id="filter4091">
      <feGaussianBlur
         inkscape:collect="always"
         stdDeviation="0.9778125"
         id="feGaussianBlur4093" />
    </filter>
  </defs>
  <sodipodi:namedview
     id="base"
     pagecolor="#ffffff"
     bordercolor="#666666"
     borderopacity="1.0"
     inkscape:pageopacity="0.0"
     inkscape:pageshadow="2"
     inkscape:zoom="7.0833333"
     inkscape:cx="36"
     inkscape:cy="36"
     inkscape:document-units="px"
     inkscape:current-layer="layer1"
     showgrid="false"
     showguides="true"
     inkscape:guide-bbox="true"
     inkscape:window-width="1366"
     inkscape:window-height="714"
     inkscape:window-x="0"
     inkscape:window-y="24"
     inkscape:window-maximized="1" />
  <metadata
     id="metadata7">
    <rdf:RDF>
      <cc:Work
         rdf:about="">
        <dc:format>image/svg+xml</dc:format>
        <dc:type
           rdf:resource="http://purl.org/dc/dcmitype/StillImage" />
        <dc:title></dc:title>
      </cc:Work>
    </rdf:RDF>
  </metadata>
  <g
     inkscape:label="Layer 1"
     inkscape:groupmode="layer"
     id="layer1"
     transform="translate(0,-980.3622)"
     style="display:inline">
    <rect
       transform="translate(0,980.3622)"
       y="12"
       x="11.858824"
       height="47.717648"
       width="48.988235"
       id="rect4095"
       style="opacity:1;fill:#ffffff;fill-opacity:1;stroke:none" />
    <path
       id="path4031"
       d="m 10.0625,989.4247 c -1.1080002,0 -2,0.892 -2,2 l 0,51.875 c 0,1.108 0.8919998,2 2,2 l 51.875,0 c 1.108,0 2,-0.892 2,-2 l 0,-51.875 c 0,-1.108 -0.892,-2 -2,-2 l -51.875,0 z M 27,996.01845 c 6.232789,0 8.96875,3.25005 8.96875,3.25005 0,0 3.006446,-3.25005 9.0625,-3.25005 7.764791,0 14.15625,6.39135 14.15625,14.15625 l 0,27.375 -10.3125,0 0,-27.375 c 0,-2.1968 -1.647179,-3.8437 -3.84375,-3.8437 -2.196569,0 -3.875,1.6469 -3.875,3.8437 l 0,27.375 -10.3125,0 0,-27.375 c 0,-2.1968 -1.647179,-3.8437 -3.84375,-3.8437 -2.196569,0 -3.875,1.6469 -3.875,3.8437 l 0,27.375 -10.3125,0 0,-27.375 c 0,-7.7649 6.422709,-14.15625 14.1875,-14.15625 z"
       style="fill:#000000;fill-opacity:1;stroke:none;filter:url(#filter4091)"
       inkscape:connector-curvature="0" />
    <rect
       style="opacity:0.43076923;fill:#ffffff;fill-opacity:1;stroke:none"
       id="rect4077"
       width="48.988235"
       height="47.717648"
       x="11.858824"
       y="12"
       transform="translate(0,980.3622)" />
    <path
       id="path4029"
       transform="translate(0,980.3622)"
       d="M 10.0625 8.0625 C 8.9544998 8.0625 8.0625 8.9545 8.0625 10.0625 L 8.0625 61.9375 C 8.0625 63.0455 8.9544998 63.9375 10.0625 63.9375 L 61.9375 63.9375 C 63.0455 63.9375 63.9375 63.0455 63.9375 61.9375 L 63.9375 10.0625 C 63.9375 8.9545 63.0455 8.0625 61.9375 8.0625 L 10.0625 8.0625 z M 27 14.65625 C 33.232789 14.65625 35.96875 17.90625 35.96875 17.90625 C 35.96875 17.90625 38.975196 14.65625 45.03125 14.65625 C 52.796041 14.65625 59.1875 21.0476 59.1875 28.8125 L 59.1875 56.1875 L 48.875 56.1875 L 48.875 28.8125 C 48.875 26.6157 47.227821 24.96875 45.03125 24.96875 C 42.834681 24.96875 41.15625 26.6157 41.15625 28.8125 L 41.15625 56.1875 L 30.84375 56.1875 L 30.84375 28.8125 C 30.84375 26.6157 29.196571 24.96875 27 24.96875 C 24.803431 24.96875 23.125 26.6157 23.125 28.8125 L 23.125 56.1875 L 12.8125 56.1875 L 12.8125 28.8125 C 12.8125 21.0476 19.235209 14.65625 27 14.65625 z "
       style="fill:#ffffff;fill-opacity:1;stroke:none" />
    <path
       style="fill:url(#linearGradient4026);fill-opacity:1;stroke:none"
       d="M 10.0625 8.0625 C 8.9544998 8.0625 8.0625 8.9545 8.0625 10.0625 L 8.0625 61.9375 C 8.0625 63.0455 8.9544998 63.9375 10.0625 63.9375 L 61.9375 63.9375 C 63.0455 63.9375 63.9375 63.0455 63.9375 61.9375 L 63.9375 10.0625 C 63.9375 8.9545 63.0455 8.0625 61.9375 8.0625 L 10.0625 8.0625 z M 27 14.65625 C 33.232789 14.65625 35.96875 17.90625 35.96875 17.90625 C 35.96875 17.90625 38.975196 14.65625 45.03125 14.65625 C 52.796041 14.65625 59.1875 21.0476 59.1875 28.8125 L 59.1875 56.1875 L 48.875 56.1875 L 48.875 28.8125 C 48.875 26.6157 47.227821 24.96875 45.03125 24.96875 C 42.834681 24.96875 41.15625 26.6157 41.15625 28.8125 L 41.15625 56.1875 L 30.84375 56.1875 L 30.84375 28.8125 C 30.84375 26.6157 29.196571 24.96875 27 24.96875 C 24.803431 24.96875 23.125 26.6157 23.125 28.8125 L 23.125 56.1875 L 12.8125 56.1875 L 12.8125 28.8125 C 12.8125 21.0476 19.235209 14.65625 27 14.65625 z "
       transform="translate(0,980.3622)"
       id="rect2987" />
    <rect
       ry="1.9372549"
       rx="1.9372549"
       y="989.30219"
       x="8.9399309"
       height="54.120136"
       width="54.120136"
       id="rect3802"
       style="fill:none;stroke:url(#linearGradient3810);stroke-width:0.60000002;stroke-miterlimit:4;stroke-dasharray:none" />
  </g>
</svg>
