<?xml version="1.0" encoding="UTF-8" standalone="no"?>
<!-- Generator: Adobe Illustrator 15.0.0, SVG Export Plug-In . SVG Version: 6.00 Build 0)  -->

<svg
   xmlns:dc="http://purl.org/dc/elements/1.1/"
   xmlns:cc="http://creativecommons.org/ns#"
   xmlns:rdf="http://www.w3.org/1999/02/22-rdf-syntax-ns#"
   xmlns:svg="http://www.w3.org/2000/svg"
   xmlns="http://www.w3.org/2000/svg"
   xmlns:sodipodi="http://sodipodi.sourceforge.net/DTD/sodipodi-0.dtd"
   xmlns:inkscape="http://www.inkscape.org/namespaces/inkscape"
   version="1.1"
   id="Layer_1"
   x="0px"
   y="0px"
   width="8.4665375"
   height="8.4700003"
   viewBox="0 0 8.4665373 8.4700005"
   enable-background="new 0 0 9.248 9.122"
   xml:space="preserve"
   inkscape:version="0.48.0 r9654"
   sodipodi:docname="MTS_Bus_icon.svg"
   inkscape:export-filename="/home/malc/wholemeal/projects/ChristchurchMetro/res/drawable-hdpi/bus-tab-unselected.png"
   inkscape:export-xdpi="510.24402"
   inkscape:export-ydpi="510.24402"><metadata
   id="metadata21"><rdf:RDF><cc:Work
       rdf:about=""><dc:format>image/svg+xml</dc:format><dc:type
         rdf:resource="http://purl.org/dc/dcmitype/StillImage" /><dc:title></dc:title></cc:Work></rdf:RDF></metadata><defs
   id="defs19">
	
	
	
	
	
	
</defs><sodipodi:namedview
   pagecolor="#ffffff"
   bordercolor="#666666"
   borderopacity="1"
   objecttolerance="10"
   gridtolerance="10"
   guidetolerance="10"
   inkscape:pageopacity="0"
   inkscape:pageshadow="2"
   inkscape:window-width="1366"
   inkscape:window-height="714"
   id="namedview17"
   showgrid="false"
   fit-margin-top="0"
   fit-margin-left="0"
   fit-margin-right="0"
   fit-margin-bottom="0"
   inkscape:zoom="55.153024"
   inkscape:cx="0.61542795"
   inkscape:cy="4.5478961"
   inkscape:window-x="0"
   inkscape:window-y="24"
   inkscape:window-maximized="1"
   inkscape:current-layer="Layer_1" />
<path
   style="fill:#555753;fill-opacity:1;stroke:#ffffff;stroke-width:0.10000000000000001;stroke-linecap:round;stroke-miterlimit:4;stroke-opacity:1;stroke-dasharray:none;stroke-dashoffset:0"
   d="M 1.59375 0.5 C 1.03975 0.5 0.59375 0.94600002 0.59375 1.5 L 0.59375 6.96875 C 0.59375 7.52275 1.03975 7.96875 1.59375 7.96875 L 6.875 7.96875 C 7.429 7.96875 7.875 7.52275 7.875 6.96875 L 7.875 1.5 C 7.875 0.94600002 7.429 0.5 6.875 0.5 L 1.59375 0.5 z M 3.6875 0.96875 L 4.09375 0.96875 L 4.375 0.96875 L 4.75 0.96875 C 4.75 0.96875 5.47975 1.03225 6.21875 1.40625 C 6.21875 1.40625 6.5425 1.50775 6.5625 1.96875 L 6.71875 3.59375 C 6.71875 3.59375 6.75 3.89275 6.75 3.96875 L 6.75 6 C 6.75 6 6.73625 6.444 6.15625 6.5 L 6.15625 6.78125 L 6.15625 6.875 L 6.15625 7.28125 C 6.15625 7.28125 6.08425 7.5 5.90625 7.5 L 5.6875 7.5 C 5.5105 7.5 5.46875 7.28125 5.46875 7.28125 L 5.46875 6.78125 L 5.46875 6.5 L 4.46875 6.5 L 4 6.5 L 3 6.5 L 3 6.78125 L 3 7.28125 C 3 7.28125 2.93 7.5 2.75 7.5 L 2.5625 7.5 C 2.3835 7.5 2.3125 7.28125 2.3125 7.28125 L 2.3125 6.875 L 2.3125 6.78125 L 2.3125 6.5 C 1.7325 6.444 1.71875 6 1.71875 6 L 1.71875 3.96875 C 1.71875 3.89275 1.75 3.59375 1.75 3.59375 L 1.875 1.96875 C 1.896 1.50775 2.25 1.40625 2.25 1.40625 C 2.985 1.03125 3.6875 0.96875 3.6875 0.96875 z M 3.125 1.53125 C 2.978 1.53125 2.875 1.64125 2.875 1.78125 C 2.875 1.93125 2.977 2.0625 3.125 2.0625 L 5.34375 2.0625 C 5.49575 2.0625 5.59375 1.93125 5.59375 1.78125 C 5.59375 1.64125 5.49675 1.53125 5.34375 1.53125 L 3.125 1.53125 z M 2.53125 2.25 C 2.53125 2.25 2.2275 2.24775 2.1875 2.59375 C 2.1495 2.93675 2.09375 3.625 2.09375 3.625 C 2.09375 3.625 2.11325 3.96875 2.40625 3.96875 L 3.9375 3.96875 L 4.53125 3.96875 L 6.0625 3.96875 C 6.3555 3.96875 6.375 3.625 6.375 3.625 C 6.375 3.625 6.31825 2.93675 6.28125 2.59375 C 6.24125 2.24775 5.9375 2.25 5.9375 2.25 L 4.5 2.25 L 3.9375 2.25 L 2.53125 2.25 z M 2.4375 4.8125 C 2.2485 4.8125 2.09375 4.96625 2.09375 5.15625 C 2.09375 5.34225 2.2485 5.5 2.4375 5.5 C 2.6235 5.5 2.78125 5.34225 2.78125 5.15625 C 2.78125 4.96625 2.6235 4.8125 2.4375 4.8125 z M 6.03125 4.8125 C 5.84325 4.8125 5.6875 4.96625 5.6875 5.15625 C 5.6875 5.34225 5.84325 5.5 6.03125 5.5 C 6.21825 5.5 6.375 5.34225 6.375 5.15625 C 6.375 4.96625 6.21925 4.8125 6.03125 4.8125 z "
   id="rect3768" />
</svg>